<svg xmlns="http://www.w3.org/2000/svg" viewBox="0 0 600 250" width="600" height="250" role="img" aria-labelledby="t d">
<title id="t">verify/screen 이 세는 것</title><desc id="d">예시: 테스트 계획에서 화면 축으로 배정된 화면 10개(N)를 모두 촬영해 기획과 대조하면 일치 8개(M), 불일치 2개(K).</desc>
<rect width="600" height="250" fill="#ffffff"/>
<g font-family="Pretendard, 'Apple SD Gothic Neo', 'Noto Sans KR', 'Malgun Gothic', sans-serif"><text x="16" y="28" font-size="17" fill="#111318" font-weight="700">verify/screen 이 세는 것</text><text x="16" y="48" font-size="12" fill="#6b7280">배정 N 중 일치 M · 불일치 K — 예시 숫자(N = 10), 실제는 작업마다 다르다</text><rect x="16" y="72" width="44" height="44" rx="6" fill="#e7f6e7" stroke="#0ca30c" stroke-width="2"/><text x="38" y="102" font-size="20" fill="#0a7a0a" text-anchor="middle" font-weight="700">✓</text><text x="38" y="133" font-size="12" fill="#6b7280" text-anchor="middle">1</text><rect x="72" y="72" width="44" height="44" rx="6" fill="#e7f6e7" stroke="#0ca30c" stroke-width="2"/><text x="94" y="102" font-size="20" fill="#0a7a0a" text-anchor="middle" font-weight="700">✓</text><text x="94" y="133" font-size="12" fill="#6b7280" text-anchor="middle">2</text><rect x="128" y="72" width="44" height="44" rx="6" fill="#e7f6e7" stroke="#0ca30c" stroke-width="2"/><text x="150" y="102" font-size="20" fill="#0a7a0a" text-anchor="middle" font-weight="700">✓</text><text x="150" y="133" font-size="12" fill="#6b7280" text-anchor="middle">3</text><rect x="184" y="72" width="44" height="44" rx="6" fill="#e7f6e7" stroke="#0ca30c" stroke-width="2"/><text x="206" y="102" font-size="20" fill="#0a7a0a" text-anchor="middle" font-weight="700">✓</text><text x="206" y="133" font-size="12" fill="#6b7280" text-anchor="middle">4</text><rect x="240" y="72" width="44" height="44" rx="6" fill="#e7f6e7" stroke="#0ca30c" stroke-width="2"/><text x="262" y="102" font-size="20" fill="#0a7a0a" text-anchor="middle" font-weight="700">✓</text><text x="262" y="133" font-size="12" fill="#6b7280" text-anchor="middle">5</text><rect x="296" y="72" width="44" height="44" rx="6" fill="#e7f6e7" stroke="#0ca30c" stroke-width="2"/><text x="318" y="102" font-size="20" fill="#0a7a0a" text-anchor="middle" font-weight="700">✓</text><text x="318" y="133" font-size="12" fill="#6b7280" text-anchor="middle">6</text><rect x="352" y="72" width="44" height="44" rx="6" fill="#e7f6e7" stroke="#0ca30c" stroke-width="2"/><text x="374" y="102" font-size="20" fill="#0a7a0a" text-anchor="middle" font-weight="700">✓</text><text x="374" y="133" font-size="12" fill="#6b7280" text-anchor="middle">7</text><rect x="408" y="72" width="44" height="44" rx="6" fill="#e7f6e7" stroke="#0ca30c" stroke-width="2"/><text x="430" y="102" font-size="20" fill="#0a7a0a" text-anchor="middle" font-weight="700">✓</text><text x="430" y="133" font-size="12" fill="#6b7280" text-anchor="middle">8</text><rect x="464" y="72" width="44" height="44" rx="6" fill="#fbeaea" stroke="#d03b3b" stroke-width="2"/><text x="486" y="102" font-size="20" fill="#d03b3b" text-anchor="middle" font-weight="700">✗</text><text x="486" y="133" font-size="12" fill="#6b7280" text-anchor="middle">9</text><rect x="520" y="72" width="44" height="44" rx="6" fill="#fbeaea" stroke="#d03b3b" stroke-width="2"/><text x="542" y="102" font-size="20" fill="#d03b3b" text-anchor="middle" font-weight="700">✗</text><text x="542" y="133" font-size="12" fill="#6b7280" text-anchor="middle">10</text><path d="M16,144 v8 H452 v-8" fill="none" stroke="#0ca30c" stroke-width="1.5"/><text x="234" y="171" font-size="14" fill="#111318" text-anchor="middle" font-weight="600">✓ 일치 M = 8</text><path d="M464,144 v8 H564 v-8" fill="none" stroke="#d03b3b" stroke-width="1.5"/><text x="514" y="171" font-size="14" fill="#111318" text-anchor="middle" font-weight="600">✗ 불일치 K = 2</text><text x="16" y="222" font-size="12" fill="#4b5563">배정된 화면 N 개를 전부 찍어 기획과 그림으로 대조한다.</text><text x="16" y="240" font-size="12" fill="#4b5563">안 본 화면을 «같다» 로 적지 않는다.</text></g>
</svg>